<?xml version="1.0" standalone="no"?>
<!DOCTYPE svg PUBLIC "-//W3C//DTD SVG 20010904//EN"
 "http://www.w3.org/TR/2001/REC-SVG-20010904/DTD/svg10.dtd">
<svg version="1.0" xmlns="http://www.w3.org/2000/svg"
 width="600.000000pt" height="600.000000pt" viewBox="0 0 600.000000 600.000000"
 preserveAspectRatio="xMidYMid meet">

<g transform="translate(0.000000,600.000000) scale(0.100000,-0.100000)"
fill="#000000" stroke="none">
<path d="M1370 4870 l0 -440 130 0 130 0 0 -1425 0 -1425 -130 0 -130 0 0
-440 0 -440 1625 0 1625 0 0 690 0 690 -505 0 -505 0 -2 -248 -3 -247 -482 -3
-483 -2 0 1425 0 1425 125 0 125 0 0 440 0 440 -760 0 -760 0 0 -440z"/>
</g>
</svg>
