<?xml version="1.0" encoding="UTF-8"?>
<svg version="1.1" xmlns="http://www.w3.org/2000/svg" width="1896" height="804">
<path d="M0 0 C68.64 0 137.28 0 208 0 C208 205.26 208 410.52 208 622 C314.26 622 420.52 622 530 622 C530 682.06 530 742.12 530 804 C355.1 804 180.2 804 0 804 C0 538.68 0 273.36 0 0 Z " fill="#30981F" transform="translate(0,0)"/>
<path d="M0 0 C6.73940374 5.39152299 10.75711224 11.85702597 14.28125 19.625 C14.73886719 20.6061377 15.19648437 21.58727539 15.66796875 22.59814453 C20.53972809 33.12210623 25.19489836 43.74700359 29.87670898 54.35644531 C35.06381884 66.09345976 40.42134909 77.74506035 45.84375 89.375 C51.80124159 102.1556195 57.65548447 114.97227026 63.34375 127.875 C69.83583887 142.59745414 76.55314702 157.20726271 83.34106445 171.79541016 C88.90012172 183.74419247 94.39372587 195.72043693 99.83203125 207.72460938 C100.4322734 209.04948744 101.03253385 210.37435722 101.6328125 211.69921875 C101.93004211 212.35534149 102.22727173 213.01146423 102.5335083 213.68746948 C104.88171853 218.86664303 107.24693594 224.03791254 109.6171875 229.20703125 C109.97619644 229.99037842 110.33520538 230.77372559 110.70509338 231.58081055 C112.80723416 236.16728995 112.80723416 236.16728995 114.91293335 240.75213623 C115.87186351 242.83796861 116.82865413 244.92477206 117.78515625 247.01171875 C118.32857666 248.19467529 118.87199707 249.37763184 119.43188477 250.59643555 C122.16865363 256.64514572 124.74090122 262.76776956 127.34375 268.875 C128.44907074 268.87864563 129.55439148 268.88229126 130.69320679 268.88604736 C141.13872865 268.92307968 151.58395795 268.98094223 162.02925682 269.05890274 C167.39858551 269.09831632 172.7677517 269.13053485 178.13720703 269.14599609 C183.32455251 269.16120292 188.51145106 269.19571999 193.69859695 269.24330902 C195.67196378 269.25808134 197.64539444 269.26603862 199.61881638 269.26688385 C220.70928526 269.28499267 220.70928526 269.28499267 229.9296875 275.6640625 C236.35703832 282.25981552 239.46670074 288.66444487 239.84375 297.9375 C239.54025919 305.82826116 236.69711032 312.47679873 231.21078491 318.19734192 C223.2117113 325.38505459 214.13989515 325.61464026 203.9296875 325.58203125 C202.46422289 325.59517232 200.9987763 325.61048386 199.53335571 325.62785339 C195.70947571 325.66743591 191.88607236 325.67787632 188.06201172 325.68188477 C184.14666528 325.69126724 180.23159306 325.72871218 176.31640625 325.76367188 C168.65885133 325.82797452 161.00158095 325.86143809 153.34375 325.875 C153.80523438 326.86790039 154.26671875 327.86080078 154.7421875 328.88378906 C164.06927174 348.96421519 173.29630646 369.08099499 182.21484375 389.34667969 C182.83827236 390.76118643 183.46195999 392.17557905 184.0859375 393.58984375 C184.52241608 394.57997971 184.52241608 394.57997971 184.9677124 395.59011841 C186.47208969 398.98210055 188.03415307 402.32681054 189.7265625 405.62890625 C193.28424176 412.77004505 193.46986065 420.96352947 191.6953125 428.703125 C188.98478086 436.2555465 184.40129037 441.49797253 177.34375 445.3125 C170.15580935 448.13852795 161.77647888 448.15242652 154.40234375 446.02734375 C141.69985825 440.306377 137.23860602 428.08209083 131.90625 416.125 C131.11592498 414.38019907 130.32448371 412.63590337 129.53198242 410.89208984 C127.11572196 405.56202007 124.7271207 400.21984091 122.34375 394.875 C121.62698999 393.27049134 120.91019439 391.66599858 120.19335938 390.06152344 C117.59720887 384.24539806 115.0030796 378.42842853 112.43774414 372.59863281 C105.5435018 356.9588191 98.41866923 341.43982231 91.34375 325.875 C26.99375 325.875 -37.35625 325.875 -103.65625 325.875 C-108.93625 340.065 -114.21625 354.255 -119.65625 368.875 C-127.34375 388.9375 -127.34375 388.9375 -131.0390625 398.48046875 C-133.4918628 404.82248311 -135.89979505 411.17878635 -138.2734375 417.55078125 C-139.14447379 419.87605848 -140.01638023 422.20100748 -140.88858032 424.52584839 C-141.43224901 425.98242 -141.97193558 427.44048564 -142.50717163 428.900177 C-146.8852588 440.83683338 -150.93176429 450.80706442 -162.65625 456.875 C-171.15517569 460.15528711 -178.47705691 459.41728994 -186.65625 455.875 C-194.00503421 451.77663957 -198.93888916 445.65157738 -201.34375 437.5625 C-202.23291612 429.91567138 -201.42526974 423.91090591 -198.6953125 416.7265625 C-198.38195953 415.86841949 -198.06860657 415.01027649 -197.74575806 414.12612915 C-196.73268983 411.36918007 -195.69702454 408.62159883 -194.65625 405.875 C-194.31734741 404.9722937 -193.97844482 404.0695874 -193.62927246 403.13952637 C-191.13320048 396.49547859 -188.58645144 389.87148416 -186.03125 383.25 C-185.24268872 381.19990862 -184.45444413 379.1496954 -183.66650391 377.09936523 C-182.08745126 372.99107806 -180.50710216 368.88329349 -178.92578125 364.77587891 C-175.9513725 357.04661213 -172.99376869 349.31093948 -170.03857422 341.5743103 C-168.73316101 338.15721088 -167.42713534 334.74034562 -166.12109375 331.32348633 C-165.65437256 330.10244705 -165.18765137 328.88140778 -164.70678711 327.62336731 C-164.18677124 326.26292549 -164.18677124 326.26292549 -163.65625 324.875 C-164.46533813 324.88388245 -165.27442627 324.89276489 -166.10803223 324.9019165 C-173.75790165 324.9822875 -181.40756442 325.04307803 -189.05774689 325.08224869 C-192.99017955 325.10306427 -196.92226139 325.13127007 -200.85449219 325.17675781 C-204.65410274 325.220433 -208.45337727 325.24418239 -212.2532196 325.25450897 C-213.69802637 325.26186174 -215.14281614 325.27621968 -216.58747864 325.29792023 C-226.5211157 325.44111019 -232.54094123 324.38550602 -240.84375 318.6875 C-246.77699426 312.75425574 -249.72000147 306.00618395 -249.90625 297.625 C-249.710531 288.51653867 -246.39120202 282.95396686 -240.49609375 276.13671875 C-230.84690331 268.45187519 -219.79686982 269.27094452 -208.0859375 269.265625 C-206.1944946 269.25062484 -204.3030647 269.23389387 -202.41165161 269.21551514 C-197.46337239 269.17203541 -192.51526982 269.1518857 -187.5668335 269.13677979 C-182.50538777 269.11713851 -177.44413086 269.07517658 -172.3828125 269.03515625 C-162.47401686 268.96006428 -152.5652639 268.9096459 -142.65625 268.875 C-134.45988984 247.60354818 -126.2790612 226.3269283 -118.20986938 205.00683594 C-116.83638523 201.37790799 -115.4617147 197.74943055 -114.08666992 194.12109375 C-113.60813894 192.85836796 -113.12960805 191.59564213 -112.65107727 190.33291626 C-112.41379725 189.70680073 -112.17651722 189.0806852 -111.93204689 188.43559647 C-111.21922925 186.55454166 -110.5065328 184.67344098 -109.79386902 182.79232788 C-105.19342747 170.65020265 -100.58234653 158.51213174 -95.96875 146.375 C-95.18912309 144.32381356 -94.40950069 142.27262541 -93.62988281 140.22143555 C-92.08096383 136.14629428 -90.53195945 132.07118549 -88.98291016 127.99609375 C-86.23017092 120.7542832 -83.47811626 113.51221255 -80.7263031 106.27005005 C-78.7550115 101.08206867 -76.78346703 95.89418376 -74.8112793 90.70654297 C-71.11443884 80.98155672 -67.42032969 71.25555683 -63.73504639 61.52618408 C-62.00200813 56.95132502 -60.26753743 52.37700965 -58.53295898 47.80273438 C-57.70981562 45.63080469 -56.88736718 43.45861149 -56.06567383 41.28613281 C-42.19857301 4.62446541 -42.19857301 4.62446541 -30.65625 -1.125 C-20.87152481 -4.72989876 -9.30961666 -4.8571913 0 0 Z M-15.65625 91.875 C-15.88603043 92.48996841 -16.11581085 93.10493683 -16.35255432 93.73854065 C-35.97424947 146.24359643 -35.97424947 146.24359643 -44.09375 167.25 C-50.22402609 183.11166293 -56.27784704 199.00185677 -62.30687332 214.90222931 C-63.01593075 216.77210125 -63.72523258 218.64188051 -64.43453979 220.51165771 C-67.51411117 228.63063359 -70.58801398 236.75173371 -73.65625 244.875 C-74.31784119 246.6257785 -74.31784119 246.6257785 -74.99279785 248.41192627 C-76.27062679 251.79600666 -77.54593854 255.18102349 -78.8203125 258.56640625 C-79.20867279 259.59467026 -79.59703308 260.62293427 -79.99716187 261.68235779 C-80.34824005 262.616772 -80.69931824 263.55118622 -81.06103516 264.51391602 C-81.52517319 265.74634789 -81.52517319 265.74634789 -81.99868774 267.00367737 C-82.71150294 268.70165967 -82.71150294 268.70165967 -82.65625 269.875 C-33.48625 269.875 15.68375 269.875 66.34375 269.875 C61.55296323 259.09572976 56.74735649 248.33681427 51.81918335 237.62176514 C45.95849052 224.87357099 40.1988691 212.08509412 34.53125 199.25 C28.39412376 185.35459827 22.05865128 171.55920838 15.6394043 157.79208374 C9.12482403 143.81473036 2.78491319 129.76812228 -3.40625 115.64453125 C-6.94101948 107.60000758 -10.62848258 99.68836776 -14.65625 91.875 C-14.98625 91.875 -15.31625 91.875 -15.65625 91.875 Z " fill="#3B7E71" transform="translate(514.65625,119.125)"/>
<path d="M0 0 C5.67666301 3.81725509 8.9706971 7.21122527 11.8359375 13.4609375 C12.16847031 14.15542496 12.50100311 14.84991241 12.84361267 15.56544495 C13.92003127 17.82456208 14.97439904 20.09314035 16.02734375 22.36328125 C16.75198878 23.90124579 17.47741944 25.43884039 18.20361328 26.97607422 C20.52367 31.9063263 22.8083358 36.85260062 25.08984375 41.80078125 C25.92740742 43.61283125 26.76505532 45.42484232 27.6027832 47.23681641 C33.60150975 60.22314891 39.54286775 73.2351039 45.44570923 86.26525879 C45.74592987 86.92795776 46.04615051 87.59065674 46.35546875 88.2734375 C46.80447037 89.26458557 46.80447037 89.26458557 47.26254272 90.27575684 C49.47872195 95.16365623 51.71062478 100.04420498 53.94921875 104.921875 C61.00968797 120.31054207 67.98388757 135.7308783 74.82492065 151.21841431 C80.64075932 164.37150973 86.66180097 177.42315662 92.73672485 190.45828247 C99.13925477 204.20326577 105.37439814 218.01408562 111.49609375 231.88623047 C115.87352993 241.80189617 120.3365951 251.67132885 124.93164062 261.48852539 C125.34478516 262.37789795 125.75792969 263.26727051 126.18359375 264.18359375 C126.72209961 265.33239014 126.72209961 265.33239014 127.27148438 266.50439453 C128.02734375 268.36328125 128.02734375 268.36328125 128.02734375 270.36328125 C129.69198669 270.3532885 129.69198669 270.3532885 131.39025879 270.34309387 C141.86563049 270.28219137 152.34096612 270.23726472 162.81647491 270.20784473 C168.20161843 270.192211 173.58661864 270.17101449 178.97167969 270.13696289 C184.17178246 270.10428786 189.37174766 270.086411 194.57194519 270.07864952 C196.55260889 270.07312064 198.53326534 270.0623241 200.51387024 270.04609108 C203.29521766 270.02420862 206.07600176 270.02131885 208.85742188 270.02270508 C209.67022614 270.01191925 210.4830304 270.00113342 211.32046509 269.99002075 C219.19146095 270.03227137 225.81930483 272.36985864 232.02734375 277.36328125 C238.73782973 285.00488729 240.70565522 291.37476412 240.3984375 301.5625 C239.57282736 310.01848595 235.63039915 315.48787634 229.28515625 320.890625 C221.3953287 326.03675819 214.0363819 325.75872423 204.90625 325.65625 C203.43652278 325.65064743 201.96678991 325.64638046 200.49705505 325.64338684 C196.64840949 325.63198994 192.80010924 325.60256807 188.95159912 325.5692749 C185.01660837 325.53846208 181.08156126 325.52485766 177.14648438 325.50976562 C169.43994757 325.47769264 161.73369424 325.42655979 154.02734375 325.36328125 C154.48882813 326.35618164 154.9503125 327.34908203 155.42578125 328.37207031 C164.71383773 348.36860104 173.89873984 368.40393462 182.81054688 388.57128906 C183.12248993 389.27719177 183.43443298 389.98309448 183.75582886 390.71038818 C184.35652173 392.07090741 184.95642356 393.43177622 185.55545044 394.79302979 C187.66368403 399.57533211 189.84689111 404.31893576 192.08862305 409.04003906 C195.40427075 417.24594377 194.33940848 425.35912482 191.02734375 433.36328125 C186.96298313 440.84066265 180.98835055 444.70961232 173.02734375 447.36328125 C164.52473754 448.02993803 157.40042176 447.88838921 150.02734375 443.36328125 C149.14046875 442.82703125 148.25359375 442.29078125 147.33984375 441.73828125 C139.871221 434.06780383 135.99254362 423.13365541 131.65234375 413.48828125 C130.95165344 411.94342194 130.25055423 410.39874804 129.54907227 408.85424805 C125.9801912 400.98172966 122.45408314 393.0904341 118.953125 385.1875 C118.61742493 384.43009521 118.28172485 383.67269043 117.93585205 382.89233398 C116.3586308 379.33151196 114.78578819 375.76890395 113.22314453 372.20166016 C106.42784454 356.785043 99.18598715 341.63505384 92.02734375 326.36328125 C27.67734375 326.03328125 -36.67265625 325.70328125 -102.97265625 325.36328125 C-103.30265625 327.01328125 -103.63265625 328.66328125 -103.97265625 330.36328125 C-104.50279752 331.96410144 -105.07024647 333.55289798 -105.66821289 335.12963867 C-106.01749344 336.05632355 -106.36677399 336.98300842 -106.72663879 337.93777466 C-107.29894478 339.43810745 -107.29894478 339.43810745 -107.8828125 340.96875 C-108.28211472 342.02472382 -108.68141693 343.08069763 -109.09281921 344.16867065 C-110.40312143 347.63083142 -111.71902082 351.09083422 -113.03515625 354.55078125 C-113.94396992 356.94772724 -114.85249611 359.34478224 -115.76074219 361.74194336 C-118.05773247 367.80139792 -120.35956517 373.85900071 -122.66265869 379.9161377 C-124.27203797 384.15107795 -125.87790627 388.38734319 -127.48338318 392.62376404 C-128.89801866 396.35560576 -130.31457756 400.08671459 -131.73190308 403.8175354 C-132.37889908 405.52080993 -133.0255027 407.22423357 -133.67166138 408.92782593 C-135.44970587 413.61293757 -137.24468021 418.29103777 -139.05395508 422.96417236 C-140.03921677 425.5370983 -140.99692658 428.11950251 -141.95507812 430.70263672 C-142.6321443 432.48430355 -143.30986272 434.26572267 -143.98828125 436.046875 C-144.28321472 436.86076187 -144.57814819 437.67464874 -144.88201904 438.51319885 C-148.02049305 446.63398196 -153.23577304 453.17246951 -160.97265625 457.36328125 C-169.682705 460.6500921 -176.9325914 459.97639307 -185.4609375 456.55078125 C-192.41637753 453.2623617 -195.75751418 448.20346399 -198.97265625 441.36328125 C-202.41728471 431.02939588 -199.3675127 420.80057527 -195.47265625 411.11328125 C-194.98288028 409.84493329 -194.49541042 408.5756929 -194.01000977 407.30566406 C-192.940601 404.51800607 -191.85787159 401.73600984 -190.76611328 398.95703125 C-188.81626886 393.98185495 -186.92189679 388.98619758 -185.03125 383.98828125 C-177.74767893 364.75337241 -170.36161182 345.55791016 -162.97265625 326.36328125 C-163.76477509 326.36185623 -164.55689392 326.36043121 -165.37301636 326.35896301 C-172.87546348 326.34105765 -180.37723075 326.29922327 -187.87937737 326.23119068 C-191.73541764 326.19704817 -195.59106711 326.17183077 -199.44726562 326.16772461 C-203.17591326 326.16341395 -206.90368123 326.13472619 -210.63205338 326.08984947 C-212.04719015 326.07696195 -213.46243269 326.07253547 -214.8776207 326.07712746 C-224.66160304 326.10145712 -232.6936678 325.24713267 -240.10641479 318.38923645 C-247.2761001 310.83313659 -248.61650269 304.38002458 -248.3828125 294.09765625 C-247.60067935 286.97652014 -244.81294217 281.73443064 -239.53515625 276.92578125 C-232.49485665 271.50781156 -226.40415756 270.20973061 -217.71582031 270.24975586 C-216.47136391 270.24953682 -216.47136391 270.24953682 -215.20176697 270.24931335 C-212.46391165 270.25000913 -209.72612466 270.25778586 -206.98828125 270.265625 C-205.08827756 270.26749037 -203.18827339 270.26891371 -201.28826904 270.26991272 C-196.29057484 270.27372852 -191.29290976 270.28355084 -186.29522705 270.2946167 C-181.19421787 270.30485094 -176.09320399 270.30941466 -170.9921875 270.31445312 C-160.9856643 270.32517393 -150.9791627 270.34223913 -140.97265625 270.36328125 C-140.80757568 269.77953735 -140.64249512 269.19579346 -140.47241211 268.59436035 C-138.48342618 261.74718049 -136.08492603 255.11309366 -133.53515625 248.45703125 C-133.10290237 247.32015869 -132.6706485 246.18328613 -132.22529602 245.01196289 C-131.05465718 241.93492498 -129.88096824 238.85907259 -128.70590591 235.78372192 C-127.46433192 232.53193838 -126.22685075 229.27859808 -124.98901367 226.02539062 C-122.96117861 220.69720312 -120.93128172 215.36980592 -118.89990234 210.04296875 C-116.24831852 203.08923672 -113.60302483 196.13312757 -110.9609375 189.17578125 C-110.37365372 187.62932922 -110.37365372 187.62932922 -109.77450562 186.05163574 C-108.99695002 184.00407606 -108.21941279 181.95650941 -107.44189453 179.90893555 C-105.50136101 174.79957385 -103.55925772 169.690809 -101.6171875 164.58203125 C-97.69514613 154.2643584 -93.77398852 143.94634999 -89.85327148 133.62817383 C-88.27091314 129.46388729 -86.68838482 125.29966541 -85.10571289 121.13549805 C-81.09533752 110.58345997 -77.0869285 100.03068104 -73.08203125 89.4765625 C-69.51498172 80.07634727 -65.94242772 70.67824203 -62.36473083 61.28207397 C-60.12200578 55.39034156 -57.88694842 49.49577719 -55.65805054 43.59880066 C-54.279127 39.95484477 -52.89409227 36.31323403 -51.50744629 32.67221069 C-50.86782931 30.98882954 -50.23079263 29.30446532 -49.59655762 27.61904907 C-48.73011269 25.31756569 -47.85447935 23.01978338 -46.9765625 20.72265625 C-46.72949051 20.05946884 -46.48241852 19.39628143 -46.2278595 18.71299744 C-43.04073833 10.44747208 -38.42363469 4.27286447 -30.6015625 0.09765625 C-20.95876133 -3.97151988 -9.52711712 -4.73433427 0 0 Z M-14.97265625 93.36328125 C-15.32755127 94.31315918 -15.68244629 95.26303711 -16.0480957 96.24169922 C-25.70572349 122.08082768 -35.46826829 147.8791402 -45.28059387 173.65988159 C-48.17325364 181.26035296 -51.0622347 188.86221483 -53.94921875 196.46484375 C-54.35734299 197.53942337 -54.76546722 198.61400299 -55.18595886 199.72114563 C-57.20023192 205.02470408 -59.21394828 210.32847283 -61.22680664 215.63256836 C-64.81410596 225.08133678 -68.41318711 234.52509823 -72.0546875 243.953125 C-72.67533676 245.56313416 -73.29594369 247.17315964 -73.91650391 248.78320312 C-75.04471884 251.70988281 -76.17931039 254.63397266 -77.31787109 257.55664062 C-77.81111016 258.83454367 -78.30412674 260.11253262 -78.796875 261.390625 C-79.22057373 262.48109131 -79.64427246 263.57155762 -80.08081055 264.69506836 C-81.13116059 267.36860651 -81.13116059 267.36860651 -80.97265625 270.36328125 C-32.13265625 270.36328125 16.70734375 270.36328125 67.02734375 270.36328125 C65.47388794 265.70291381 63.74683692 261.37523592 61.67578125 256.94921875 C61.34511658 256.23506805 61.0144519 255.52091736 60.67376709 254.78512573 C59.95970203 253.24294154 59.24436771 251.70134454 58.52789307 250.16027832 C52.27301629 236.70081189 46.14136952 223.19294103 40.15234375 209.61328125 C33.62062242 194.81699967 26.86532515 180.131567 20.04150391 165.46801758 C14.98555941 154.60179667 9.97520511 143.71665164 5.02734375 132.80078125 C4.57158966 131.79540314 4.57158966 131.79540314 4.10662842 130.76971436 C2.92650766 128.16610225 1.74645745 125.56245826 0.56677246 122.95864868 C-3.91205722 113.07786807 -8.44297136 103.22082707 -12.97265625 93.36328125 C-13.63265625 93.36328125 -14.29265625 93.36328125 -14.97265625 93.36328125 Z " fill="#CC8D03" transform="translate(1655.97265625,118.63671875)"/>
<path d="M0 0 C7.85971214 7.10273358 11.75492062 18.24453132 16.12084961 27.67260742 C16.87584628 29.28894468 17.63146986 30.90498924 18.38769531 32.52075195 C20.27269511 36.55296125 22.14915559 40.58906863 24.02209473 44.62689209 C25.53367217 47.88446702 27.05017918 51.13973663 28.56616211 54.39526367 C30.67972256 58.93890658 32.78872232 63.48462904 34.89428711 68.03198242 C38.20847497 75.18831837 41.53641505 82.33818987 44.87084961 89.48510742 C45.15808899 90.10083618 45.44532837 90.71656494 45.74127197 91.35095215 C50.85079408 102.3005906 55.99605606 113.23327131 61.14743042 124.16326904 C65.60878426 133.63059883 70.03942683 143.11123518 74.43334961 152.61010742 C79.59537297 163.76736852 84.84791142 174.87995933 90.12084961 185.98510742 C96.19834745 198.78578011 102.20817167 211.61300887 108.12475586 224.48901367 C111.47208544 231.77086315 114.85698283 239.03502442 118.24584961 246.29760742 C118.79208984 247.46936523 119.33833008 248.64112305 119.90112305 249.84838867 C124.58045729 259.87114872 129.31586026 269.86710924 134.05834961 279.86010742 C134.07047989 278.48067711 134.07047989 278.48067711 134.08285522 277.07337952 C134.16100958 268.37882456 134.24836227 259.68442007 134.34587669 250.99005985 C134.39568202 246.52091092 134.44201264 242.05178382 134.48022461 237.58251953 C134.51727757 233.26411273 134.56369004 228.94589603 134.61641312 224.62765312 C134.6348513 222.98559361 134.64999767 221.34349352 134.66169357 219.70137215 C134.83276892 196.49889361 134.83276892 196.49889361 143.05834961 186.86010742 C150.22959737 180.1745617 157.08846371 178.36374315 166.80834961 178.55151367 C175.07746544 179.33668212 181.58803281 183.74622394 187.05834961 189.86010742 C191.4151245 196.4834126 192.20120682 202.85745597 192.26367188 210.6796875 C192.27357147 211.45094971 192.28347107 212.22221191 192.29367065 213.0168457 C192.32514159 215.55441263 192.34998583 218.09199824 192.37475586 220.62963867 C192.39533784 222.39369684 192.41633464 224.15775021 192.43772888 225.92179871 C192.49282106 230.55610258 192.54228684 235.19045001 192.59057617 239.8248291 C192.64088525 244.55733092 192.69652214 249.28976979 192.75170898 254.0222168 C192.85913326 263.30145984 192.96061294 272.58075764 193.05834961 281.86010742 C204.47310082 257.60929066 204.47310082 257.60929066 215.62084961 233.23510742 C221.2766508 220.72325876 227.04169819 208.26588938 232.86383057 195.83071899 C236.30688913 188.47649569 239.72287826 181.11026252 243.12084961 173.73510742 C247.10788107 165.08320982 251.10692412 156.43706246 255.12084961 147.79760742 C256.20941288 145.45386745 257.29795361 143.11011702 258.38647461 140.76635742 C258.67182068 140.15196304 258.95716675 139.53756866 259.25115967 138.90455627 C259.8596681 137.59433368 260.46816795 136.28410709 261.07666016 134.97387695 C261.75712967 133.50869292 262.43763331 132.04352473 263.11816406 130.57836914 C265.87060936 124.65216737 268.62151714 118.72525399 271.37084961 112.79760742 C271.97891953 111.48663086 271.97891953 111.48663086 272.59927368 110.14916992 C277.87608889 98.7687743 283.11998402 87.37404289 288.32284546 75.95965576 C295.60829486 59.97647216 302.97068244 44.03135133 310.49584961 28.15942383 C311.45828485 26.12718167 312.41735913 24.09333896 313.37084961 22.05688477 C322.42770902 2.73838947 322.42770902 2.73838947 330.68334961 -1.07739258 C338.90300271 -3.66506115 348.10357146 -4.78562566 356.21459961 -1.24536133 C362.46183601 2.50033338 367.53174183 8.77141482 369.63256836 15.77416992 C371.15456217 23.23054328 370.09271862 29.65070572 367.51147461 36.75073242 C367.24541916 37.49161606 366.97936371 38.23249969 366.70524597 38.99583435 C364.05545796 46.1818383 360.82411781 53.02941867 357.39736938 59.87197876 C355.60795062 63.44661364 353.85137672 67.03741715 352.08959961 70.62573242 C351.73988602 71.33591019 351.39017242 72.04608795 351.02986145 72.77778625 C348.03928952 78.86241852 345.17302937 84.99888278 342.37084961 91.17260742 C341.72321655 92.59887451 341.72321655 92.59887451 341.0625 94.05395508 C340.18479005 95.98762665 339.30726834 97.92138367 338.42993164 99.85522461 C335.9214408 105.35086456 333.36051948 110.8221545 330.80834961 116.29760742 C326.12639664 126.3556502 321.51147596 136.4419688 316.93334961 146.54760742 C309.31134573 163.36729869 301.54819595 180.12045152 293.76873779 196.86778259 C290.82098267 203.21437137 287.87964291 209.56390738 284.94116211 215.91479492 C284.09384591 217.74553082 283.24651533 219.57626005 282.39916992 221.40698242 C281.189261 224.02105767 279.97953678 226.63521706 278.77062988 229.24975586 C274.67074832 238.11579951 270.54107685 246.96562838 266.34350586 255.78588867 C262.97839281 262.86332705 259.74918628 269.98698796 256.62084961 277.17260742 C251.63026958 288.51822387 246.38398721 299.73097808 241.05834961 310.92260742 C240.47373962 312.15140625 240.47373962 312.15140625 239.87731934 313.4050293 C239.48878784 314.22165039 239.10025635 315.03827148 238.69995117 315.87963867 C237.92745143 317.50331813 237.15499003 319.12701583 236.38256836 320.75073242 C236.00657501 321.54104858 235.63058167 322.33136475 235.24319458 323.14562988 C226.89083078 340.71857128 218.85916135 358.44141012 210.83496094 376.16601562 C210.56529133 376.75716754 210.29562172 377.34831945 210.0177803 377.95738506 C209.41787203 379.28815456 208.82920506 380.62407462 208.25428963 381.9658308 C206.46846371 386.05866971 204.50177668 389.80846171 202.08485413 393.56555176 C189.13758666 415.13278227 191.46068431 439.28783816 191.73848796 463.6107254 C191.79722203 469.95603375 191.78439008 476.30120849 191.77894592 482.64672852 C191.77874437 493.27784472 191.81782468 503.90801383 191.890625 514.53881836 C191.96518103 525.44831237 192.0227915 536.35761971 192.05273438 547.26733398 C192.05459627 547.94185812 192.05645817 548.61638227 192.05837648 549.31134653 C192.07823253 556.68438498 192.09305131 564.05742426 192.10438633 571.43048096 C192.10638647 572.72522968 192.1083866 574.01997841 192.11044735 575.35396194 C192.11436273 577.93566484 192.1180835 580.51736804 192.12160403 583.0990715 C192.13401167 590.63148304 192.16747747 598.16342516 192.21942222 605.69566536 C192.24967943 610.37452923 192.26825536 615.05339543 192.28455353 619.73232651 C192.29489621 621.89545787 192.31049947 624.05857167 192.33184242 626.22162247 C192.36053794 629.18147597 192.37053136 632.14085579 192.37632751 635.10083008 C192.38936053 635.94888466 192.40239354 636.79693924 192.41582149 637.67069244 C192.39136404 647.24665225 189.93223224 655.9566597 183.05834961 662.86010742 C174.79790118 669.34138234 168.48915985 670.49227774 158.05834961 669.86010742 C150.48712774 668.69530406 145.00772143 664.59304712 140.05834961 658.86010742 C135.85275541 651.79285545 134.90982852 645.24789678 134.94482422 637.12797546 C134.94467536 636.23675973 134.9445265 635.345544 134.94437313 634.42732173 C134.94506879 631.43443409 134.95291669 628.44160747 134.96069336 625.44873047 C134.96261222 623.30501846 134.96407617 621.161306 134.96511841 619.01759338 C134.96828306 614.39590822 134.97455761 609.77424126 134.98318481 605.1525631 C134.99670196 597.83484915 135.002601 590.51714129 135.00732422 583.19941711 C135.01937799 566.32983788 135.04136971 549.4602743 135.06355286 532.59070587 C135.08376056 517.15914013 135.10183556 501.72757987 135.11176777 486.29600364 C135.11673119 479.03280846 135.12656394 471.76964154 135.14019775 464.50645769 C135.14770099 459.96826122 135.15098186 455.43006853 135.15316391 450.89186668 C135.15502324 448.8002245 135.15859844 446.70858296 135.16409683 444.61694717 C135.61893333 420.15369518 135.61893333 420.15369518 127.87084961 397.29760742 C127.23285671 396.04485022 126.59800277 394.79049021 125.96606445 393.53466797 C124.98437247 391.5848109 124.00089919 389.63611424 123.0078125 387.69203186 C119.8644588 381.53628153 116.93136711 375.29195485 114.0350647 369.01699829 C112.59107217 365.89002934 111.13657897 362.76794769 109.68334961 359.64526367 C109.38962967 359.01349716 109.09590973 358.38173065 108.79328918 357.7308197 C105.28070539 350.17927429 101.73214047 342.6446868 98.18334961 335.11010742 C97.51122331 333.68262056 96.83910418 332.25513032 96.16699219 330.82763672 C93.44624972 325.04981756 90.72423961 319.27259624 88.0012207 313.49584961 C80.62239032 297.84176906 73.26320871 282.17990128 65.99121094 266.47583008 C61.37711979 256.52175604 56.70512491 246.59546913 52.02658081 236.67156982 C47.52610891 227.12393326 43.05398353 217.56424102 38.62084961 207.98510742 C33.65255481 197.25159835 28.6169497 186.55126955 23.55834961 175.86010742 C16.85848788 161.69918809 10.23218915 147.50623311 3.64868164 133.29077148 C0.87633498 127.31026561 -1.90555158 121.33421604 -4.69165039 115.36010742 C-5.12009247 114.44134827 -5.12009247 114.44134827 -5.55718994 113.50402832 C-10.14559153 103.66893819 -14.77339148 93.85273742 -19.41339111 84.04190063 C-22.25455511 78.03326248 -25.09158639 72.02267293 -27.92694092 66.0112915 C-28.59670253 64.59139689 -29.26666104 63.17159514 -29.93682861 61.75189209 C-31.78928311 57.82676447 -33.63656194 53.89928802 -35.47555542 49.96783447 C-36.28716857 48.2355332 -37.10369796 46.50553788 -37.92041016 44.77563477 C-47.3533976 24.5547653 -47.3533976 24.5547653 -44.17993164 13.11401367 C-41.07568985 4.85648511 -36.87575911 -0.22951042 -28.94165039 -4.13989258 C-19.49774131 -7.93176516 -7.98522873 -6.28487791 0 0 Z " fill="#F7018D" transform="translate(1121.941650390625,111.139892578125)"/>
<path d="M0 0 C106.26 0 212.52 0 322 0 C322 60.06 322 120.12 322 182 C215.74 182 109.48 182 0 182 C0 121.94 0 61.88 0 0 Z " fill="#C88A05" transform="translate(208,622)"/>
<path d="M0 0 C6.02288322 4.67028656 8.88551541 10.1874819 10.03125 17.6796875 C10.259872 22.41843706 9.53360798 26.64852981 8.3515625 31.2109375 C8.17190948 31.91327515 7.99225647 32.61561279 7.80715942 33.3392334 C6.00331462 40.15566227 3.55106438 46.64680095 0.90625 53.1796875 C-0.17383498 55.90003772 -1.24513711 58.62382422 -2.31640625 61.34765625 C-2.74786201 62.44130745 -2.74786201 62.44130745 -3.18803406 63.55705261 C-7.09387092 73.48805596 -10.79920066 83.49494705 -14.53125 93.4921875 C-20.62837327 109.80261166 -26.77176595 126.09445109 -32.96875 142.3671875 C-40.50558128 162.1658582 -47.99974356 181.98035286 -55.46875 201.8046875 C-55.87784103 202.89047403 -55.87784103 202.89047403 -56.29519653 203.99819565 C-65.60845837 228.71864601 -74.88869047 253.45143337 -84.15826416 278.18829346 C-90.33029441 294.65877683 -96.50864266 311.12682331 -102.7109375 327.5859375 C-103.12541389 328.68598429 -103.12541389 328.68598429 -103.54826355 329.80825424 C-106.28705181 337.07681841 -109.02748851 344.34475237 -111.77407837 351.61037254 C-113.10276859 355.12537102 -114.43056544 358.64070636 -115.7578125 362.15625 C-116.01724136 362.84337193 -116.27667023 363.53049385 -116.54396057 364.23843765 C-120.17810121 373.86939202 -123.76254304 383.51763144 -127.31110001 393.18042755 C-128.75631622 397.1116867 -130.20878087 401.04027585 -131.66100121 404.96895218 C-132.79279755 408.033669 -133.91688562 411.1009037 -135.03094482 414.17211914 C-136.24187759 417.51036306 -137.47058558 420.84156023 -138.703125 424.171875 C-139.04886566 425.14136078 -139.39460632 426.11084656 -139.75082397 427.10971069 C-142.30236525 433.92700644 -145.4353538 439.34156479 -151.6015625 443.421875 C-152.83519531 443.98261719 -152.83519531 443.98261719 -154.09375 444.5546875 C-154.92132812 444.94398438 -155.74890625 445.33328125 -156.6015625 445.734375 C-164.9566032 449.0708764 -172.2785548 448.11182708 -180.5234375 444.8046875 C-190.09273136 440.40220087 -193.22649633 431.31266535 -196.90771484 422.11474609 C-202.5315844 408.17631407 -209.15850032 394.65308267 -215.55078125 381.0546875 C-216.79440131 378.40891546 -218.03789678 375.76308494 -219.28125 373.1171875 C-219.59554962 372.44852661 -219.90984924 371.77986572 -220.2336731 371.09094238 C-225.02972355 360.88189866 -229.74832717 350.63995428 -234.40625 340.3671875 C-234.71507111 339.6863208 -235.02389221 339.0054541 -235.34207153 338.30395508 C-236.91689881 334.83128265 -238.4906917 331.35814239 -240.06396484 327.88476562 C-240.69888253 326.48306807 -241.33381093 325.08137537 -241.96875 323.6796875 C-242.28330139 322.98528564 -242.59785278 322.29088379 -242.92193604 321.57543945 C-251.83065942 301.91535798 -260.90671085 282.34547797 -270.23535156 262.88061523 C-274.8787954 253.17757839 -279.36743875 243.41671755 -283.76049805 233.59790039 C-287.2421875 225.82362558 -290.8284323 218.09754992 -294.40625 210.3671875 C-295.18344528 208.68616076 -295.96054242 207.00508865 -296.73754883 205.32397461 C-297.94160772 202.71893626 -299.14574247 200.11393328 -300.3502655 197.5091095 C-303.10807343 191.54472444 -305.86030356 185.57779129 -308.609375 179.609375 C-316.01430575 163.53662495 -323.45118621 147.48062056 -330.98376465 131.46725464 C-334.87296119 123.19656942 -338.69603333 114.90184973 -342.40844727 106.55004883 C-346.14068005 98.20319959 -350.06401582 89.94674887 -353.96875 81.6796875 C-358.50103692 72.07882272 -363.0322031 62.47905005 -367.40625 52.8046875 C-367.76525391 52.01578125 -368.12425781 51.226875 -368.49414062 50.4140625 C-372.27080131 41.99446483 -373.71745772 33.04027204 -371.21484375 23.9375 C-367.89968292 16.21512536 -363.33153104 11.61053569 -355.96875 7.6796875 C-349.11450205 5.39493818 -340.56156341 5.5677905 -333.90625 8.4296875 C-332.57337483 9.14284949 -331.25712751 9.88896654 -329.96875 10.6796875 C-329.081875 11.2159375 -328.195 11.7521875 -327.28125 12.3046875 C-319.89380427 19.89179392 -315.94323841 30.73796998 -311.53125 40.2421875 C-310.82857892 41.74517196 -310.12561085 43.24801761 -309.42236328 44.75073242 C-304.33342955 55.64727435 -299.35874284 66.59472449 -294.41223145 77.55648804 C-290.01436008 87.29654747 -285.46881768 96.95089426 -280.78125 106.5546875 C-275.6749215 117.01976489 -270.83498869 127.57400946 -266.14892578 138.23339844 C-263.40527426 144.46872008 -260.60497458 150.66375301 -257.65625 156.8046875 C-253.59334082 165.2691598 -249.71377613 173.81345064 -245.84375 182.3671875 C-240.80057785 193.5108046 -235.68292141 204.61506107 -230.46875 215.6796875 C-224.92195806 227.45014457 -219.49304267 239.2696032 -214.12896729 251.12438965 C-210.27095691 259.64913677 -206.36116816 268.142745 -202.31225586 276.57885742 C-198.67177408 284.21092485 -195.26229447 291.94609189 -191.82589722 299.67138672 C-187.36407759 309.68985241 -182.72239949 319.60917611 -177.92651367 329.47314453 C-175.16074505 335.16297388 -172.5000807 340.88177301 -169.96875 346.6796875 C-167.15074947 339.69254403 -164.41175459 332.67829965 -161.72265625 325.640625 C-161.31961777 324.58710846 -160.91657928 323.53359192 -160.50132751 322.44815063 C-159.17682417 318.98409891 -157.85386983 315.51945879 -156.53125 312.0546875 C-156.07089355 310.84941406 -155.61053711 309.64414062 -155.13623047 308.40234375 C-147.73816686 289.02658388 -140.42762058 269.6191049 -133.16494751 250.19213867 C-126.59308165 232.61647148 -119.93340396 215.07626385 -113.21875 197.5546875 C-106.39883406 179.75715831 -99.68913322 161.92422114 -93.11529541 144.03436279 C-88.03573455 130.2125898 -82.85774 116.43226654 -77.59375 102.6796875 C-73.05911359 90.83163088 -68.56599171 78.97287894 -64.21875 67.0546875 C-63.78860596 65.8776123 -63.35846191 64.70053711 -62.9152832 63.48779297 C-60.57102028 57.07232186 -60.57102028 57.07232186 -58.23175049 50.6550293 C-41.06053614 3.4888249 -41.06053614 3.4888249 -29.109375 -3.390625 C-19.21636295 -7.92832887 -8.71495233 -5.84455136 0 0 Z " fill="#CA1B22" transform="translate(1038.96875,106.3203125)"/>
<path d="M0 0 C6.72075176 5.46749682 11.92857523 13.89156982 12.95678711 22.59082031 C13.05282548 24.98454555 13.0483255 27.35498845 13 29.75 C13.00322266 30.54470703 13.00644531 31.33941406 13.00976562 32.15820312 C12.90766914 43.56516494 9.09939848 51.98328755 3.90661621 61.95159912 C1.70257962 66.21986483 -0.41924426 70.52916442 -2.5546875 74.83203125 C-3.48524758 76.69878187 -4.41624261 78.56531574 -5.34765625 80.43164062 C-6.76559538 83.27362017 -8.18295913 86.11587661 -9.59814453 88.95922852 C-34.1174249 138.21496245 -34.1174249 138.21496245 -38.3125 140.3125 C-43.76041376 126.83470574 -49.01561936 113.2968914 -54.125 99.6875 C-55.60439757 95.75610673 -57.08533506 91.82529427 -58.56640625 87.89453125 C-58.94755585 86.88247116 -59.32870544 85.87041107 -59.72140503 84.8276825 C-62.62099152 77.13333943 -65.53899768 69.44611125 -68.46484375 61.76171875 C-68.89162918 60.6405365 -69.31841461 59.51935425 -69.75813293 58.36419678 C-71.43293807 53.96518292 -73.10803395 49.56628266 -74.78579712 45.168396 C-87.3125 12.33058719 -87.3125 12.33058719 -87.3125 9.3125 C-91.9325 9.3125 -96.5525 9.3125 -101.3125 9.3125 C-101.3125 6.6725 -101.3125 4.0325 -101.3125 1.3125 C-86.7925 1.3125 -72.2725 1.3125 -57.3125 1.3125 C-57.3125 3.9525 -57.3125 6.5925 -57.3125 9.3125 C-60.2825 9.6425 -63.2525 9.9725 -66.3125 10.3125 C-51.56756496 49.7991877 -51.56756496 49.7991877 -36.5625 89.1875 C-36.24521942 90.01251007 -35.92793884 90.83752014 -35.6010437 91.68753052 C-34.71990034 93.9771636 -33.83702918 96.26611898 -32.953125 98.5546875 C-32.69682816 99.21970779 -32.44053131 99.88472809 -32.1764679 100.56990051 C-31.28930311 102.85972689 -30.4114144 105.11467119 -29.3125 107.3125 C-22.81016548 95.04988362 -16.40840369 82.74181695 -10.17797852 70.33862305 C-9.30031991 68.59498164 -8.41905987 66.8531489 -7.53442383 65.11303711 C-6.2246557 62.53630686 -4.92567717 59.95438474 -3.62890625 57.37109375 C-3.23828506 56.60735947 -2.84766388 55.84362518 -2.44520569 55.05674744 C3.21568123 43.68995923 6.43940222 31.30406329 2.62109375 18.828125 C-0.68328397 11.58910678 -4.83305711 6.48722052 -12.3203125 3.515625 C-20.56052062 1.12434892 -28.49170928 1.9370773 -36.3125 5.3125 C-42.20103108 8.85223497 -44.40971666 12.82065097 -46.3125 19.3125 C-45.425625 19.35375 -44.53875 19.395 -43.625 19.4375 C-40.06507539 20.37785744 -38.48700217 21.54190616 -36.296875 24.5 C-34.44691245 27.90628024 -34.25053545 30.40873343 -34.3125 34.3125 C-35.8125 37.3125 -35.8125 37.3125 -38.3125 39.3125 C-42.04110549 39.85484262 -44.47633537 39.62363103 -48 38.3125 C-52.35688405 34.54438406 -54.00145308 30.73463388 -54.734375 25.02734375 C-55.04454622 17.10936174 -54.23555238 10.69423456 -49.3125 4.3125 C-35.55664524 -9.03877079 -15.98082009 -10.84520683 0 0 Z " fill="#F6018C" transform="translate(869.3125,623.6875)"/>
<path d="M0 0 C5.08855112 3.62267493 9.36161986 7.7714139 11.75390625 13.640625 C12.08984375 16.76953125 12.08984375 16.76953125 12.12890625 20.203125 C12.15726563 21.33878906 12.185625 22.47445312 12.21484375 23.64453125 C11.75390625 26.640625 11.75390625 26.640625 9.9140625 28.51953125 C6.96509226 30.05000948 5.03965853 30.04296201 1.75390625 29.640625 C-1.66074515 28.21123604 -3.01463073 26.99181026 -5.05859375 23.890625 C-6.42709473 20.14525391 -6.75893991 17.59686681 -6.24609375 13.640625 C-4.24609375 11.203125 -4.24609375 11.203125 -2.24609375 9.640625 C-9.17640427 4.75790623 -14.80073667 3.6477407 -23.24609375 4.640625 C-28.17971232 6.31789168 -31.3156838 9.04232326 -33.74609375 13.640625 C-36.2479213 20.38321854 -36.51491666 27.66138039 -34.328125 34.51953125 C-31.21711667 41.27515129 -27.13045096 45.6351407 -20.24609375 48.640625 C-12.72184682 50.10944668 -4.8724621 49.748207 2.75390625 49.640625 C2.75390625 52.280625 2.75390625 54.920625 2.75390625 57.640625 C1.8249353 57.70793823 1.8249353 57.70793823 0.87719727 57.77661133 C-1.97742685 57.99026248 -4.83036706 58.2215852 -7.68359375 58.453125 C-8.65748047 58.52337891 -9.63136719 58.59363281 -10.63476562 58.66601562 C-19.32306297 59.39246189 -28.26775219 60.66865326 -34.24609375 67.640625 C-41.41465348 77.76600073 -43.43231168 87.291472 -42.24609375 99.640625 C-40.2053452 107.8890459 -36.49469753 114.05533397 -29.24609375 118.640625 C-22.18840687 122.23010149 -12.59683071 121.60920062 -5 119.91796875 C5.42129343 116.34784465 10.79085727 111.4745301 15.75390625 101.640625 C16.44234963 99.98283492 17.11574728 98.31841383 17.75390625 96.640625 C20.39390625 96.970625 23.03390625 97.300625 25.75390625 97.640625 C24.09213936 108.10975641 19.32433018 115.05705006 11.23046875 121.8515625 C-0.53274551 130.3492788 -14.19002727 131.80309677 -28.24609375 129.640625 C-40.71958769 126.84169465 -50.81723665 120.07190703 -58.24609375 109.640625 C-63.17480674 100.95466123 -64.27038993 91.29726132 -62.24609375 81.578125 C-58.88749072 69.96738872 -51.61279974 61.22250267 -41.24609375 55.203125 C-40.25609375 54.6875 -39.26609375 54.171875 -38.24609375 53.640625 C-38.90996094 53.1559375 -39.57382812 52.67125 -40.2578125 52.171875 C-46.84139286 47.17412057 -51.601089 42.57563924 -54.24609375 34.640625 C-55.26240324 24.25883062 -54.42712067 16.39158848 -48.24609375 7.640625 C-36.8399349 -5.55895505 -15.01691936 -9.08850076 0 0 Z " fill="#3A7D70" transform="translate(622.24609375,629.359375)"/>
<path d="M0 0 C1.64453125 1.09765625 1.64453125 1.09765625 3.95703125 3.09765625 C3.06979697 5.90723147 2.44181072 7.69645945 0.14453125 9.59765625 C-2.04296875 10.09765625 -2.04296875 10.09765625 -7.04296875 7.09765625 C-6.71296875 32.83765625 -6.38296875 58.57765625 -6.04296875 85.09765625 C-3.40296875 83.77765625 -0.76296875 82.45765625 1.95703125 81.09765625 C9.02001872 79.90123898 15.31156625 80.39088091 21.37109375 84.3203125 C25.58807211 89.04623652 26.34159984 94.43386215 26.46875 100.5625 C26.4867012 101.24067276 26.5046524 101.91884552 26.52314758 102.61756897 C26.57678068 104.75670382 26.61099169 106.89562183 26.64453125 109.03515625 C26.67774617 110.49677468 26.71223962 111.95836465 26.74804688 113.41992188 C26.83247728 116.97895835 26.89951095 120.53807137 26.95703125 124.09765625 C27.61703125 122.44765625 28.27703125 120.79765625 28.95703125 119.09765625 C31.59703125 119.09765625 34.23703125 119.09765625 36.95703125 119.09765625 C36.49332451 123.82746502 35.97766311 127.34790636 32.95703125 131.09765625 C28.14840073 134.41790113 23.61737115 134.83816667 17.95703125 134.09765625 C14.23834922 132.78923109 12.49399484 131.8197797 10.14453125 128.66015625 C8.00844692 124.05071112 7.78630347 120.00371663 7.640625 114.92578125 C7.6198439 114.24336365 7.59906281 113.56094604 7.57765198 112.85784912 C7.51251073 110.68788269 7.45343721 108.51780001 7.39453125 106.34765625 C7.35131228 104.87238404 7.30769693 103.39712338 7.26367188 101.921875 C7.15686607 98.31392459 7.05549972 94.70584492 6.95703125 91.09765625 C5.04940916 90.49251971 5.04940916 90.49251971 2.95703125 90.09765625 C1.02375831 91.13231686 1.02375831 91.13231686 -0.66796875 92.78515625 C-1.25835938 93.30464844 -1.84875 93.82414063 -2.45703125 94.359375 C-6.17101692 98.43012284 -6.36911392 102.37021198 -6.45703125 107.70703125 C-6.4763974 108.43384094 -6.49576355 109.16065063 -6.51571655 109.90948486 C-6.57531146 112.22209073 -6.62181633 114.53474692 -6.66796875 116.84765625 C-6.70616711 118.41929207 -6.74521992 119.99090738 -6.78515625 121.5625 C-6.88259937 125.40744296 -6.96232405 129.25217762 -7.04296875 133.09765625 C-12.98296875 133.09765625 -18.92296875 133.09765625 -25.04296875 133.09765625 C-25.08933204 117.85054802 -25.12499144 102.60344798 -25.14659309 87.3562851 C-25.15689118 80.27623591 -25.17092335 73.19623143 -25.19384766 66.11621094 C-25.21596484 59.28218666 -25.22754165 52.44820882 -25.23272324 45.614151 C-25.23641539 43.00829844 -25.24362521 40.40244838 -25.25442886 37.7966156 C-25.26897002 34.14365167 -25.27094556 30.4908789 -25.27001953 26.83789062 C-25.27721008 25.76326569 -25.28440063 24.68864075 -25.29180908 23.58145142 C-25.27283764 16.65437366 -25.04856288 10.32093253 -21.29296875 4.28515625 C-15.68920258 -1.16294975 -7.40666901 -3.27139683 0 0 Z " fill="#C91A22" transform="translate(999.04296875,625.90234375)"/>
<path d="M0 0 C2.12186938 1.91652718 2.64676678 2.93957887 2.9375 5.75 C1.2875 7.07 -0.3625 8.39 -2.0625 9.75 C-4.0425 8.76 -6.0225 7.77 -8.0625 6.75 C-7.7325 32.82 -7.4025 58.89 -7.0625 85.75 C-4.7525 84.43 -2.4425 83.11 -0.0625 81.75 C5.94504298 79.74748567 12.6411305 79.7705248 18.4375 82.4375 C21.72402109 84.36361687 23.5774291 86.09480946 24.9375 89.75 C25.45051543 93.85412341 25.32451789 96.02240636 23.375 99.6875 C20.9375 101.75 20.9375 101.75 17.5 102.3125 C13.25926093 101.64290962 11.72699756 101.01769714 8.9375 97.75 C7.95829217 94.78687629 7.37926795 91.83578212 6.9375 88.75 C5.844375 89.224375 4.75125 89.69875 3.625 90.1875 C1.40273745 91.15187809 -0.75750485 91.98166828 -3.0625 92.75 C-2.7325 93.74 -2.4025 94.73 -2.0625 95.75 C-0.06562937 96.67367683 -0.06562937 96.67367683 2.375 97.375 C10.51580834 100.41174343 18.02914484 106.93328969 21.9375 114.75 C22.78209186 117.72571319 23.42253925 120.70089029 23.9375 123.75 C24.5975 123.42 25.2575 123.09 25.9375 122.75 C26.58963292 120.72536745 26.58963292 120.72536745 26.9375 118.75 C29.5775 118.75 32.2175 118.75 34.9375 118.75 C35.29707762 122.52556505 35.05477831 124.51995408 33.3125 127.9375 C29.812664 132.08204263 26.85759059 133.50562483 21.5 134.1875 C16.66406475 133.59361321 12.750763 131.84703372 9.54907227 128.14428711 C8.27143021 126.30009342 7.09320096 124.42283085 5.9375 122.5 C5.08768892 121.15609004 4.23353115 119.81491862 3.375 118.4765625 C2.96378906 117.83493164 2.55257812 117.19330078 2.12890625 116.53222656 C-0.53802165 112.54276475 -3.69114919 107.93567541 -8.0625 105.75 C-8.0625 114.66 -8.0625 123.57 -8.0625 132.75 C-13.6725 132.75 -19.2825 132.75 -25.0625 132.75 C-25.13198588 116.9468197 -25.18550377 101.14369358 -25.21793652 85.34039879 C-25.23339675 78.00243296 -25.25447005 70.66456388 -25.28881836 63.32666016 C-25.31874665 56.9299566 -25.33808114 50.53332312 -25.34476548 44.1365515 C-25.34867197 40.75037372 -25.3578349 37.36439638 -25.37969017 33.97828293 C-25.40144125 30.19552433 -25.40446781 26.41318209 -25.40307617 22.63037109 C-25.413862 21.51115265 -25.42464783 20.3919342 -25.4357605 19.23880005 C-25.41035199 12.86340544 -25.0571793 8.03322913 -20.5625 3.10546875 C-14.36189391 -1.72260735 -7.42446962 -3.03039576 0 0 Z " fill="#3B7D71" transform="translate(680.0625,626.25)"/>
<path d="M0 0 C5.79928277 3.11181027 7.82114119 9.09194054 10 15 C12.28262063 23.81464821 12.31270282 34.53667246 8.39453125 42.84375 C5.16069254 47.8439712 1.11875912 51.08053849 -4.3125 53.4375 C-12.17117027 54.63628021 -18.94776566 54.94925123 -26 51 C-28.9375 48.8125 -28.9375 48.8125 -31 47 C-33.54171204 48.17309786 -35.72883744 49.4908497 -38.0625 51.0625 C-42.62264752 54.07025687 -46.64360099 54.54254502 -52 54 C-57.2222571 52.31825619 -60.40195378 50.12717067 -64 46 C-65.15410254 43.69179492 -65.1210297 42.39215724 -65.11352539 39.82568359 C-65.11344986 38.96494232 -65.11337433 38.10420105 -65.11329651 37.21737671 C-65.10813522 36.28712677 -65.10297394 35.35687683 -65.09765625 34.3984375 C-65.0962413 33.44683746 -65.09482635 32.49523743 -65.09336853 31.51480103 C-65.08776012 28.46816903 -65.07520619 25.42160987 -65.0625 22.375 C-65.05748608 20.31250106 -65.05292299 18.25000097 -65.04882812 16.1875 C-65.03778796 11.12497183 -65.02051767 6.06249827 -65 1 C-59.39 1 -53.78 1 -48 1 C-48 15.19 -48 29.38 -48 44 C-41.73700967 44.12627093 -41.73700967 44.12627093 -37 41 C-34.74768322 36.74841912 -34.659454 32.56369775 -34.5859375 27.85546875 C-34.56657135 27.08568192 -34.5472052 26.31589508 -34.5272522 25.52278137 C-34.46774377 23.07779829 -34.42118705 20.63276738 -34.375 18.1875 C-34.33679369 16.52406866 -34.29774043 14.86065653 -34.2578125 13.19726562 C-34.16206617 9.13166759 -34.07792991 5.06597699 -34 1 C-30.92296301 0.18479662 -28.19179229 -0.16317231 -25 -0.1875 C-24.154375 -0.20167969 -23.30875 -0.21585938 -22.4375 -0.23046875 C-20 0 -20 0 -16 2 C-15.67 15.86 -15.34 29.72 -15 44 C-6.58640865 44.80531324 -6.58640865 44.80531324 -2.5625 41.8125 C1.4787587 37.37697216 2.26923365 33.80440491 2.1875 27.875 C2.18105469 26.84117187 2.17460938 25.80734375 2.16796875 24.7421875 C2.11257378 21.90833023 2.11257378 21.90833023 1 19 C-0.3303125 19.12375 -0.3303125 19.12375 -1.6875 19.25 C-5.79068934 18.94032533 -7.15799111 17.92095359 -10 15 C-11.89064348 11.90621977 -12.15176138 9.42005184 -11.9375 5.875 C-11 2 -11 2 -8.8125 -0.0625 C-5.30933045 -1.23022318 -3.52039686 -1.10012402 0 0 Z " fill="#CB8D03" transform="translate(1108,706)"/>
<path d="M0 0 C0.33 -0.33 0.66 -0.66 1 -1 C6.61 -1 12.22 -1 18 -1 C18 12.86 18 26.72 18 41 C18.66 40.67 19.32 40.34 20 40 C20.65213292 37.97536745 20.65213292 37.97536745 21 36 C23.64 36 26.28 36 29 36 C28.6298852 42.16857998 27.24224897 44.75775103 23 49 C19.95459089 51.31031036 16.79787279 51.3997833 13.015625 51.34375 C11 51 11 51 7.875 48.875 C5.12416763 46.60103876 5.12416763 46.60103876 1.9375 47.625 C0.19903196 48.438751 -1.5331513 49.26657565 -3.25 50.125 C-8.87056824 51.91336262 -14.74977331 51.89090707 -20.1875 49.5 C-26.83902665 45.66258078 -31.52729983 39.81710312 -33.5625 32.4140625 C-35.42440464 22.1403387 -33.28964258 13.84356626 -27.6875 5.125 C-20.8869953 -3.51347894 -9.74300525 -4.52741879 0 0 Z M-12 8 C-15.09371897 13.73359164 -15.49014812 18.61549838 -15.4375 25.0625 C-15.45748047 25.93455078 -15.47746094 26.80660156 -15.49804688 27.70507812 C-15.49371737 33.42435578 -14.7847728 36.64472836 -11 41 C-8.61391389 42.24401278 -8.61391389 42.24401278 -6 42 C-2.51365399 40.37844371 -1.15697806 39.23546708 1 36 C1.30835867 33.45099759 1.30835867 33.45099759 1.265625 30.59765625 C1.26820312 29.54255859 1.27078125 28.48746094 1.2734375 27.40039062 C1.26570313 26.29888672 1.25796875 25.19738281 1.25 24.0625 C1.25773437 22.96486328 1.26546875 21.86722656 1.2734375 20.73632812 C1.26957031 19.15174805 1.26957031 19.15174805 1.265625 17.53515625 C1.26336914 16.569729 1.26111328 15.60430176 1.25878906 14.60961914 C0.99020016 11.90117879 0.45555221 10.282746 -1 8 C-4.89013129 5.49023788 -8.18477222 5.25780503 -12 8 Z " fill="#CC8D03" transform="translate(1160,709)"/>
<path d="M0 0 C5.06305638 3.50519288 5.06305638 3.50519288 6.25 6.25 C6.89342388 10.65623188 7.1059693 14.02718671 4.5 17.75 C2.31059384 19.20960411 0.77780161 19.69770721 -1.75 20.25 C-1.05132813 20.84167969 -0.35265625 21.43335938 0.3671875 22.04296875 C1.73230469 23.22826172 1.73230469 23.22826172 3.125 24.4375 C4.02992188 25.21480469 4.93484375 25.99210938 5.8671875 26.79296875 C9.43232798 30.46915459 10.21123192 33.04818965 10.375 38.125 C9.64098315 42.79440838 6.97443589 45.02987658 3.3515625 47.83984375 C-2.50115647 51.76703993 -8.87859544 52.15315209 -15.75 51.25 C-22.23351554 49.1102562 -27.09044292 46.03446119 -30.75 40.25 C-31.98369865 36.47179787 -32.12931749 35.02587669 -30.375 31.4375 C-28.75 29.25 -28.75 29.25 -27.75 28.25 C-25.07941149 28.10884839 -22.42567762 28.20752893 -19.75 28.25 C-20.36488281 27.75371094 -20.97976563 27.25742187 -21.61328125 26.74609375 C-30.31480662 19.43237147 -30.31480662 19.43237147 -31.75 13.25 C-31.68061449 9.29502605 -30.79221638 6.42727131 -28.15234375 3.4453125 C-20.82869031 -3.05423557 -8.95374978 -4.26767513 0 0 Z M-15.75 6.25 C-16.19844853 10.37612615 -16.19844853 10.37612615 -13.25 13 C-12.425 13.7425 -11.6 14.485 -10.75 15.25 C-10.09 14.92 -9.43 14.59 -8.75 14.25 C-9.41 11.61 -10.07 8.97 -10.75 6.25 C-12.4 6.25 -14.05 6.25 -15.75 6.25 Z M-14.75 32.25 C-14.09 35.88 -13.43 39.51 -12.75 43.25 C-8.60906302 43.45970559 -8.60906302 43.45970559 -4.75 42.25 C-6.1833056 37.23343041 -8.65563952 35.23547118 -12.75 32.25 C-13.41 32.25 -14.07 32.25 -14.75 32.25 Z " fill="#C91B22" transform="translate(957.75,708.75)"/>
<path d="M0 0 C6.06697161 3.56776787 6.06697161 3.56776787 7.25390625 7.4375 C7.8688636 10.91789691 7.85947314 13.10221607 6.62109375 16.453125 C4.20768092 19.10009391 2.12205894 19.73761129 -1.31640625 20.578125 C-0.7853125 21.01382813 -0.25421875 21.44953125 0.29296875 21.8984375 C10.20937917 30.25862293 10.20937917 30.25862293 11.18359375 37.078125 C10.55733525 41.46193452 9.68308113 43.29297216 6.68359375 46.578125 C0.31447622 50.99466635 -5.63910538 52.69237441 -13.31640625 51.578125 C-20.76146898 50.00251399 -26.02598382 47.01375865 -30.31640625 40.578125 C-30.6171875 38.421875 -30.6171875 38.421875 -30.62890625 36.078125 C-30.64566406 35.3046875 -30.66242188 34.53125 -30.6796875 33.734375 C-30.22568186 31.03963182 -29.51814412 30.16519006 -27.31640625 28.578125 C-23.69140625 28.390625 -23.69140625 28.390625 -20.31640625 28.578125 C-19.98640625 28.578125 -19.65640625 28.578125 -19.31640625 28.578125 C-19.85910156 28.13082031 -20.40179687 27.68351563 -20.9609375 27.22265625 C-29.98056887 19.60066146 -29.98056887 19.60066146 -30.75390625 12.640625 C-30.54999923 8.30963986 -29.27096194 5.82813626 -26.31640625 2.578125 C-19.3992874 -3.14761348 -7.98327953 -3.42274882 0 0 Z M-15.31640625 6.578125 C-15.74319585 10.55411809 -15.74319585 10.55411809 -13.44140625 12.828125 C-11.51790275 14.79002742 -11.51790275 14.79002742 -9.31640625 14.578125 C-9.64640625 11.938125 -9.97640625 9.298125 -10.31640625 6.578125 C-11.96640625 6.578125 -13.61640625 6.578125 -15.31640625 6.578125 Z M-15.31640625 31.578125 C-15.00703125 32.25875 -14.69765625 32.939375 -14.37890625 33.640625 C-13.18269976 36.94778412 -12.72635228 40.09358378 -12.31640625 43.578125 C-10.00640625 43.578125 -7.69640625 43.578125 -5.31640625 43.578125 C-4.98640625 42.258125 -4.65640625 40.938125 -4.31640625 39.578125 C-5.76928286 38.23884779 -7.22887884 36.90685653 -8.69140625 35.578125 C-9.50351563 34.835625 -10.315625 34.093125 -11.15234375 33.328125 C-13.11174617 31.36852687 -13.11174617 31.36852687 -15.31640625 31.578125 Z " fill="#2F972F" transform="translate(1226.31640625,708.421875)"/>
<path d="M0 0 C2.81256281 -0.02684312 5.62487241 -0.04676188 8.4375 -0.0625 C9.23994141 -0.07087891 10.04238281 -0.07925781 10.86914062 -0.08789062 C12.91295221 -0.0965143 14.95683902 -0.0522815 17 0 C19.13086442 2.13086442 18.25960872 6.89166935 18.31640625 9.84765625 C18.33718735 10.7340831 18.35796844 11.62050995 18.37937927 12.53379822 C18.444974 15.376617 18.50380552 18.21953117 18.5625 21.0625 C18.6056758 22.98503606 18.64928978 24.90756234 18.69335938 26.83007812 C18.80066543 31.55328668 18.90190451 36.27659153 19 41 C19.12375 40.360625 19.2475 39.72125 19.375 39.0625 C19.684375 38.0415625 19.684375 38.0415625 20 37 C22.70879335 35.64560332 25.00933268 35.93498549 28 36 C28.75 38.125 28.75 38.125 29 41 C26.72978014 45.27849128 24.25520798 48.64605516 20 51 C14.74060167 51.78810556 10.4047921 51.60205376 5.5 49.5 C1.31851612 45.31851612 -0.13071748 40.30578249 -0.34057617 34.51171875 C-0.34010912 32.9035676 -0.32363671 31.29535877 -0.29296875 29.6875 C-0.28872391 28.83317383 -0.28447906 27.97884766 -0.28010559 27.09863281 C-0.26345703 24.39875318 -0.22583223 21.69964989 -0.1875 19 C-0.17243523 17.15756295 -0.15874998 15.31511407 -0.14648438 13.47265625 C-0.11359906 8.98147661 -0.06191456 4.49086944 0 0 Z " fill="#F6018C" transform="translate(891,708)"/>
<path d="M0 0 C3.7160027 1.93878402 5.24257608 3.91145591 6.5 7.8125 C7.37767415 12.2505504 6.29806494 15.0932896 4 19 C2.12419887 21.15369759 0.93437761 21.88055379 -1.89453125 22.2421875 C-5.61673842 22.36649126 -9.01284027 22.433982 -12 20 C-15.03689175 15.70646338 -15.49895621 12.18624551 -14.6953125 7.125 C-12.35954758 -0.01351751 -6.44995363 -0.92142195 0 0 Z " fill="#F6018D" transform="translate(904,668)"/>
</svg>
